# xmcd
#
# Track frame offsets: 
#        182
#        11165
#        22385
#        32847
#        44070
#        53345
#        62705
#        73495
#        83852
#        96770
#        109940
#        118932
#        131970
#        145015
#        159355
#        169025
#        178932
#        188932
#        198025
#        209490
#        221137
#        231760
#        244722
#        256432
#
# Disc length: 3535 seconds
#
# Revision: 3
# Processed by: cddbd v1.5.2PL0 Copyright (c) Steve Scherf et al.
# Submitted via: ExactAudioCopy v0.95b4
#
DISCID=720dcd18
DTITLE=The Stanley Brothers and The Clinch Mountain Boys - 1953-58 and 195
DTITLE=9 - Disc 2
DYEAR=1993
DGENRE=Bluegrass
TTITLE0=You'd Better Get Right
TTITLE1=Tragic Love
TTITLE2=Lonesome And Blue
TTITLE3=Orange Blossom Special
TTITLE4=Clinch Mountain Blues [instrumental]
TTITLE5=Big Tilda [instrumental]
TTITLE6=Will He Wait A Little Longer
TTITLE7=Angel Band
TTITLE8=The Cry From The Cross
TTITLE9=Who Will Call You Sweetheart
TTITLE10=I'm Lost, I'll Never Find The Way
TTITLE11=Let Me Walk, Lord, By Your Side
TTITLE12=A Lonesome Night
TTITLE13=The Flood
TTITLE14=Fling Ding [instrumental]
TTITLE15=I'll Never Grow Tired Of You
TTITLE16=Loving You Too Well
TTITLE17=Daybreak In Dixie [instrumental]
TTITLE18=If That's The Way You Feel
TTITLE19=A Life Of Sorrow
TTITLE20=I'd Rather Be Forgotten
TTITLE21=No School Bus In Heaven
TTITLE22=Meet Me Tonight
TTITLE23=Nobody's Business
EXTD=Bear Family - BCD-15681-BH\nTitles include issue year
EXTT0=
EXTT1=
EXTT2=
EXTT3=
EXTT4=
EXTT5=
EXTT6=
EXTT7=
EXTT8=
EXTT9=
EXTT10=
EXTT11=
EXTT12=
EXTT13=
EXTT14=
EXTT15=
EXTT16=
EXTT17=
EXTT18=
EXTT19=
EXTT20=
EXTT21=
EXTT22=
EXTT23=
PLAYORDER=
